<svg xmlns="http://www.w3.org/2000/svg" viewBox="0 0 1200 1080" width="100%" height="100%" style="background-color: #0f172a;">
  <defs>
    <!-- Background Grid Pattern -->
    <pattern id="grid" width="40" height="40" patternUnits="userSpaceOnUse">
      <path d="M 40 0 L 0 0 0 40" fill="none" stroke="#334155" stroke-width="0.5" opacity="0.3"/>
    </pattern>

    <!-- Linear Gradients for Flat Palette Colors -->
    <linearGradient id="grad-cyan" x1="0%" y1="0%" x2="100%" y2="100%">
      <stop offset="0%" stop-color="#0284c7" />
      <stop offset="100%" stop-color="#0369a1" />
    </linearGradient>
    <linearGradient id="grad-indigo" x1="0%" y1="0%" x2="100%" y2="100%">
      <stop offset="0%" stop-color="#4f46e5" />
      <stop offset="100%" stop-color="#3730a3" />
    </linearGradient>
    <linearGradient id="grad-rose" x1="0%" y1="0%" x2="100%" y2="100%">
      <stop offset="0%" stop-color="#e11d48" />
      <stop offset="100%" stop-color="#9f1239" />
    </linearGradient>
    <linearGradient id="grad-amber" x1="0%" y1="0%" x2="100%" y2="100%">
      <stop offset="0%" stop-color="#d97706" />
      <stop offset="100%" stop-color="#b45309" />
    </linearGradient>
    <linearGradient id="grad-purple" x1="0%" y1="0%" x2="100%" y2="100%">
      <stop offset="0%" stop-color="#9333ea" />
      <stop offset="100%" stop-color="#6b21a8" />
    </linearGradient>
    <linearGradient id="grad-emerald" x1="0%" y1="0%" x2="100%" y2="100%">
      <stop offset="0%" stop-color="#059669" />
      <stop offset="100%" stop-color="#047857" />
    </linearGradient>
    <linearGradient id="grad-dark" x1="0%" y1="0%" x2="0%" y2="100%">
      <stop offset="0%" stop-color="#1e293b" />
      <stop offset="100%" stop-color="#0f172a" />
    </linearGradient>

    <!-- Arrow Markers -->
    <marker id="arrow-sky" viewBox="0 0 10 10" refX="6" refY="5" markerWidth="6" markerHeight="6" orient="auto-start-reverse">
      <path d="M 0 1.5 L 8 5 L 0 8.5 z" fill="#38bdf8"/>
    </marker>
    <marker id="arrow-indigo" viewBox="0 0 10 10" refX="6" refY="5" markerWidth="6" markerHeight="6" orient="auto-start-reverse">
      <path d="M 0 1.5 L 8 5 L 0 8.5 z" fill="#818cf8"/>
    </marker>
    <marker id="arrow-rose" viewBox="0 0 10 10" refX="6" refY="5" markerWidth="6" markerHeight="6" orient="auto-start-reverse">
      <path d="M 0 1.5 L 8 5 L 0 8.5 z" fill="#f43f5e"/>
    </marker>
    <marker id="arrow-amber" viewBox="0 0 10 10" refX="6" refY="5" markerWidth="6" markerHeight="6" orient="auto-start-reverse">
      <path d="M 0 1.5 L 8 5 L 0 8.5 z" fill="#fbbf24"/>
    </marker>
    <marker id="arrow-purple" viewBox="0 0 10 10" refX="6" refY="5" markerWidth="6" markerHeight="6" orient="auto-start-reverse">
      <path d="M 0 1.5 L 8 5 L 0 8.5 z" fill="#c084fc"/>
    </marker>
    <marker id="arrow-emerald" viewBox="0 0 10 10" refX="6" refY="5" markerWidth="6" markerHeight="6" orient="auto-start-reverse">
      <path d="M 0 1.5 L 8 5 L 0 8.5 z" fill="#34d399"/>
    </marker>

    <!-- Vector Icons -->
    <g id="icon-messenger">
      <circle cx="16" cy="16" r="14" fill="#0284c7"/>
      <path d="M16 7 C11 7 7 10.6 7 15 C7 17.5 8.2 19.8 10.2 21.3 L10.2 24.5 L13.2 22.8 C14.1 23.1 15 23.2 16 23.2 C21 23.2 25 19.6 25 15 C25 10.6 21 7 16 7 Z M17.5 17.5 L15 15 L10.5 17.5 L15 12.5 L17.5 15 L22 12.5 Z" fill="#ffffff"/>
    </g>
    <g id="icon-whatsapp">
      <circle cx="16" cy="16" r="14" fill="#059669"/>
      <path d="M16 8 C11.6 8 8 11.6 8 16 C8 17.5 8.4 19 9.2 20.3 L8.2 23.8 L11.8 22.9 C13 23.6 14.5 24 16 24 C20.4 24 24 20.4 24 16 C24 11.6 20.4 8 16 8 Z M19.8 18.5 C19.5 19.2 18.5 19.8 17.8 19.9 C17.3 20 16.7 20.1 14.5 19.2 C12.2 18.2 10.7 15.8 10.6 15.6 C10.5 15.4 9.6 14.2 9.6 13 C9.6 11.8 10.2 11.2 10.5 10.9 C10.7 10.7 11.1 10.6 11.4 10.6 L12.2 10.6 C12.4 10.6 12.6 10.5 12.8 11 C13 11.5 13.5 12.7 13.6 12.8 C13.7 13 13.7 13.2 13.6 13.4 C13.5 13.6 13.4 13.7 13.2 13.9 C13 14.1 12.9 14.2 12.7 14.4 C12.5 14.6 12.3 14.8 12.5 15.2 C12.7 15.5 13.5 16.8 14.7 17.8 C16.2 19.1 17.4 19.5 17.8 19.7 C18.2 19.9 18.4 19.8 18.6 19.6 C18.8 19.4 19.3 18.8 19.6 18.3 C19.9 17.8 20.1 17.9 20.4 18 C20.7 18.1 22.2 18.8 22.5 19 C22.8 19.1 23 19.2 23.1 19.4 C23.2 19.6 23.2 20.2 19.8 18.5 Z" fill="#ffffff"/>
    </g>
    <g id="icon-telegram">
      <circle cx="16" cy="16" r="14" fill="#0284c7"/>
      <path d="M12 15.5 L11.7 19.3 C12.1 19.3 12.3 19.1 12.5 18.9 L14.3 17.1 L18.1 20 C18.8 20.4 19.3 20.2 19.5 19.4 L22 7.7 C22.2 6.8 21.6 6.4 21 6.7 L6.5 12.3 C5.6 12.7 5.6 13.2 6.3 13.4 L10 14.6 L18.6 10 C19 9.7 19.4 9.9 19.1 10.2 Z" fill="#ffffff"/>
    </g>
    <g id="icon-admin">
      <circle cx="16" cy="16" r="14" fill="#d97706"/>
      <path d="M9 11 H23 V19 H9 Z M12 21 H20 V22 H12 Z" stroke="#ffffff" stroke-width="1.5" stroke-linecap="round" stroke-linejoin="round" fill="none"/>
      <circle cx="16" cy="15" r="2" fill="#ffffff"/>
    </g>
    <g id="icon-server">
      <circle cx="16" cy="16" r="14" fill="#4f46e5"/>
      <rect x="9" y="9" width="14" height="3" rx="0.5" fill="#ffffff"/>
      <rect x="9" y="14" width="14" height="3" rx="0.5" fill="#ffffff"/>
      <rect x="9" y="19" width="14" height="3" rx="0.5" fill="#ffffff"/>
      <circle cx="11" cy="10.5" r="0.5" fill="#10b981"/>
      <circle cx="11" cy="15.5" r="0.5" fill="#10b981"/>
      <circle cx="11" cy="20.5" r="0.5" fill="#10b981"/>
    </g>
    <g id="icon-shield">
      <circle cx="16" cy="16" r="14" fill="#e11d48"/>
      <path d="M16 8 L21 10 V14.5 C21 18 19 21 16 22 C13 21 11 18 11 14.5 V10 Z" fill="none" stroke="#ffffff" stroke-width="1.5"/>
      <path d="M14 14.5 L15.5 16 L18.5 13" fill="none" stroke="#ffffff" stroke-width="1.5" stroke-linecap="round" stroke-linejoin="round"/>
    </g>
    <g id="icon-queue">
      <circle cx="16" cy="16" r="14" fill="#d97706"/>
      <path d="M9 11 H23 M9 15 H23 M9 19 H23" stroke="#ffffff" stroke-width="1.5" stroke-linecap="round"/>
      <circle cx="12" cy="11" r="0.8" fill="#ffffff"/>
      <circle cx="16" cy="15" r="0.8" fill="#ffffff"/>
      <circle cx="20" cy="19" r="0.8" fill="#ffffff"/>
    </g>
    <g id="icon-brain">
      <circle cx="16" cy="16" r="14" fill="#9333ea"/>
      <circle cx="12" cy="11" r="1.5" fill="#ffffff"/>
      <circle cx="20" cy="11" r="1.5" fill="#ffffff"/>
      <circle cx="16" cy="19" r="1.5" fill="#ffffff"/>
      <path d="M12 11 L20 11 L16 19 Z M12 11 L12 19 M20 11 L20 19" stroke="#ffffff" stroke-width="0.8" fill="none"/>
    </g>
    <g id="icon-database">
      <circle cx="16" cy="16" r="14" fill="#059669"/>
      <ellipse cx="16" cy="11" rx="4.5" ry="1.8" fill="none" stroke="#ffffff" stroke-width="1.5"/>
      <path d="M11.5 11 V15 C11.5 16 13.5 16.8 16 16.8 C18.5 16.8 20.5 16 20.5 15 V11" fill="none" stroke="#ffffff" stroke-width="1.5"/>
      <path d="M11.5 15 V19 C11.5 20 13.5 20.8 16 20.8 C18.5 20.8 20.5 20 20.5 19 V15" fill="none" stroke="#ffffff" stroke-width="1.5"/>
    </g>
  </defs>

  <style>
    .text-title {
      font-family: 'Outfit', 'Inter', system-ui, -apple-system, sans-serif;
      font-weight: 800;
      letter-spacing: 0.5px;
    }
    .text-body {
      font-family: 'Inter', system-ui, sans-serif;
      font-weight: 400;
    }
    .text-code {
      font-family: 'Fira Code', 'Courier New', monospace;
      font-weight: 500;
    }
    .label-rect {
      fill: #1e293b;
      stroke: #334155;
      stroke-width: 0.75;
    }
    .label-text {
      font-family: 'Inter', system-ui, sans-serif;
      font-weight: 600;
      font-size: 8.5px;
      fill: #94a3b8;
    }
  </style>

  <!-- Background Grid -->
  <rect width="100%" height="100%" fill="url(#grid)"/>

  <!-- ==================== HEADER SECTION ==================== -->
  <g transform="translate(50, 40)">
    <text class="text-title" x="0" y="25" font-size="28" fill="#ffffff">KONTEXT AI: SYSTEM ARCHITECTURE</text>
    <text class="text-body" x="480" y="23" font-size="14" fill="#94a3b8">Static Component Topology &amp; Logic Flow</text>
    <rect x="0" y="42" width="1100" height="2" fill="#334155"/>
  </g>

  <!-- ==================== LAYER 1: CLIENT CHANNELS (Y = 110) ==================== -->
  <g>
    <rect x="35" y="80" width="1130" height="130" rx="12" fill="#0f172a" stroke="#334155" stroke-width="1.5"/>
    <text class="text-title" x="55" y="105" font-size="11" fill="#64748b" letter-spacing="1">LAYER 1: OMNICHANNEL CHANNELS &amp; CLIENT UI</text>

    <!-- Facebook Messenger -->
    <g transform="translate(50, 120)">
      <rect width="250" height="70" rx="8" fill="url(#grad-dark)" stroke="#0284c7" stroke-width="1.5"/>
      <g transform="translate(15, 17) scale(1.1)"><use href="#icon-messenger"/></g>
      <text class="text-title" x="60" y="30" font-size="13" fill="#ffffff">Facebook Messenger</text>
      <text class="text-body" x="60" y="48" font-size="10.5" fill="#64748b">Messenger Page Webhook</text>
    </g>

    <!-- WhatsApp Cloud API -->
    <g transform="translate(330, 120)">
      <rect width="250" height="70" rx="8" fill="url(#grad-dark)" stroke="#0284c7" stroke-width="1.5"/>
      <g transform="translate(15, 17) scale(1.1)"><use href="#icon-whatsapp"/></g>
      <text class="text-title" x="60" y="30" font-size="13" fill="#ffffff">WhatsApp Business API</text>
      <text class="text-body" x="60" y="48" font-size="10.5" fill="#64748b">WhatsApp Official Cloud Webhook</text>
    </g>

    <!-- Telegram Bot API -->
    <g transform="translate(610, 120)">
      <rect width="250" height="70" rx="8" fill="url(#grad-dark)" stroke="#0284c7" stroke-width="1.5"/>
      <g transform="translate(15, 17) scale(1.1)"><use href="#icon-telegram"/></g>
      <text class="text-title" x="60" y="30" font-size="13" fill="#ffffff">Telegram Bot API</text>
      <text class="text-body" x="60" y="48" font-size="10.5" fill="#64748b">Telegram Bot Webhook</text>
    </g>

    <!-- Admin Web UI Dashboard -->
    <g transform="translate(890, 120)">
      <rect width="260" height="70" rx="8" fill="url(#grad-dark)" stroke="#d97706" stroke-width="1.5"/>
      <g transform="translate(15, 17) scale(1.1)"><use href="#icon-admin"/></g>
      <text class="text-title" x="60" y="30" font-size="13" fill="#ffffff">Admin Web UI</text>
      <text class="text-body" x="60" y="48" font-size="10.5" fill="#94a3b8">Settings &amp; Database Explorer UI</text>
    </g>
  </g>

  <!-- Flow Lines L1 -> L2 -->
  <path d="M 175 190 L 175 250" stroke="#38bdf8" stroke-width="1.5" marker-end="url(#arrow-sky)" fill="none"/>
  <path d="M 455 190 L 455 250" stroke="#38bdf8" stroke-width="1.5" marker-end="url(#arrow-sky)" fill="none"/>
  <path d="M 735 190 L 735 250" stroke="#38bdf8" stroke-width="1.5" marker-end="url(#arrow-sky)" fill="none"/>
  <path d="M 1020 190 L 1020 250" stroke="#fbbf24" stroke-width="1.5" marker-end="url(#arrow-amber)" fill="none"/>

  <g transform="translate(140, 212)">
    <rect class="label-rect" width="70" height="15" rx="3"/>
    <text class="label-text" x="35" y="10.5" text-anchor="middle">JSON payload</text>
  </g>
  <g transform="translate(420, 212)">
    <rect class="label-rect" width="70" height="15" rx="3"/>
    <text class="label-text" x="35" y="10.5" text-anchor="middle">JSON payload</text>
  </g>
  <g transform="translate(700, 212)">
    <rect class="label-rect" width="70" height="15" rx="3"/>
    <text class="label-text" x="35" y="10.5" text-anchor="middle">JSON payload</text>
  </g>
  <g transform="translate(985, 212)">
    <rect class="label-rect" width="70" height="15" rx="3"/>
    <text class="label-text" x="35" y="10.5" text-anchor="middle">REST HTTP API</text>
  </g>

  <!-- ==================== LAYER 2: FASTAPI ROUTING (Y = 250) ==================== -->
  <g>
    <rect x="35" y="250" width="1130" height="120" rx="12" fill="#0f172a" stroke="#334155" stroke-width="1.5"/>
    <text class="text-title" x="55" y="275" font-size="11" fill="#64748b" letter-spacing="1">LAYER 2: FASTAPI ROUTING &amp; Webhook Gateways</text>

    <!-- Meta Ingest Router -->
    <g transform="translate(50, 290)">
      <rect width="250" height="65" rx="8" fill="url(#grad-dark)" stroke="#4f46e5" stroke-width="1.2"/>
      <g transform="translate(12, 14) scale(1.1)"><use href="#icon-server"/></g>
      <text class="text-title" x="55" y="26" font-size="12.5" fill="#ffffff">Meta Webhook Ingest</text>
      <text class="text-code" x="55" y="44" font-size="9.5" fill="#818cf8">/webhook (POST/GET)</text>
    </g>

    <!-- WhatsApp Verification -->
    <g transform="translate(330, 290)">
      <rect width="250" height="65" rx="8" fill="url(#grad-dark)" stroke="#4f46e5" stroke-width="1.2"/>
      <g transform="translate(12, 14) scale(1.1)"><use href="#icon-server"/></g>
      <text class="text-title" x="55" y="26" font-size="12.5" fill="#ffffff">WhatsApp Verification</text>
      <text class="text-code" x="55" y="44" font-size="9.5" fill="#818cf8">/whatsapp-webhook</text>
    </g>

    <!-- Telegram Ingest Router -->
    <g transform="translate(610, 290)">
      <rect width="250" height="65" rx="8" fill="url(#grad-dark)" stroke="#4f46e5" stroke-width="1.2"/>
      <g transform="translate(12, 14) scale(1.1)"><use href="#icon-server"/></g>
      <text class="text-title" x="55" y="26" font-size="12.5" fill="#ffffff">Telegram Ingest Router</text>
      <text class="text-code" x="55" y="44" font-size="9.5" fill="#818cf8">/telegram-webhook</text>
    </g>

    <!-- Admin Settings & DB APIs -->
    <g transform="translate(890, 290)">
      <rect width="260" height="65" rx="8" fill="url(#grad-dark)" stroke="#d97706" stroke-width="1.2"/>
      <g transform="translate(12, 14) scale(1.1)"><use href="#icon-server"/></g>
      <text class="text-title" x="55" y="26" font-size="12.5" fill="#ffffff">Admin API Router</text>
      <text class="text-code" x="55" y="44" font-size="9.5" fill="#fbbf24">/api/admin/* (JWT Auth)</text>
    </g>
  </g>

  <!-- Flow Lines L2 -> Security Layer (Y=355 to Y=410) -->
  <path d="M 175 355 C 175 375 300 375 300 410" stroke="#818cf8" stroke-width="1.5" marker-end="url(#arrow-indigo)" fill="none"/>
  <path d="M 455 355 C 455 375 340 375 340 410" stroke="#818cf8" stroke-width="1.5" marker-end="url(#arrow-indigo)" fill="none"/>
  <path d="M 735 355 C 735 375 860 375 860 410" stroke="#818cf8" stroke-width="1.5" marker-end="url(#arrow-indigo)" fill="none"/>
  <path d="M 1020 355 C 1020 375 900 375 900 410" stroke="#fbbf24" stroke-width="1.5" marker-end="url(#arrow-amber)" fill="none"/>

  <!-- ==================== SECURITY & VALIDATION LAYER (Y = 410) ==================== -->
  <g>
    <rect x="35" y="410" width="1130" height="110" rx="12" fill="#0f172a" stroke="#334155" stroke-width="1.5"/>
    <text class="text-title" x="55" y="435" font-size="11" fill="#64748b" letter-spacing="1">SECURITY FILTERING &amp; REQUEST MIDDLEWARE</text>

    <!-- Redis Webhook Deduplication (SETNX) -->
    <g transform="translate(150, 450)">
      <rect width="400" height="55" rx="8" fill="url(#grad-dark)" stroke="#e11d48" stroke-width="1.5"/>
      <g transform="translate(12, 10) scale(1.1)"><use href="#icon-shield"/></g>
      <text class="text-title" x="55" y="24" font-size="12.5" fill="#ffffff">Redis Webhook Deduplication (SETNX Lock)</text>
      <text class="text-body" x="55" y="40" font-size="9.5" fill="#f43f5e">Drops duplicate webhook payloads by checking transient Redis msg_id keys</text>
    </g>

    <!-- Rate Limiter -->
    <g transform="translate(650, 450)">
      <rect width="400" height="55" rx="8" fill="url(#grad-dark)" stroke="#e11d48" stroke-width="1.5"/>
      <g transform="translate(12, 10) scale(1.1)"><use href="#icon-shield"/></g>
      <text class="text-title" x="55" y="24" font-size="12.5" fill="#ffffff">Redis Token-Bucket Rate Limiting</text>
      <text class="text-body" x="55" y="40" font-size="9.5" fill="#f43f5e">Throttles endpoint traffic based on client IPs to protect APIs</text>
    </g>
  </g>

  <!-- Flow Lines Security -> Task Broker L3 (Y=505 to Y=560) -->
  <path d="M 350 505 L 350 560" stroke="#f43f5e" stroke-width="1.5" marker-end="url(#arrow-rose)" fill="none"/>
  <path d="M 850 505 L 850 560" stroke="#f43f5e" stroke-width="1.5" marker-end="url(#arrow-rose)" fill="none"/>

  <g transform="translate(305, 525)">
    <rect class="label-rect" width="90" height="15" rx="3"/>
    <text class="label-text" x="45" y="10.5" text-anchor="middle">Unique Webhook Verified</text>
  </g>
  <g transform="translate(805, 525)">
    <rect class="label-rect" width="90" height="15" rx="3"/>
    <text class="label-text" x="45" y="10.5" text-anchor="middle">Limit Checked &amp; Passed</text>
  </g>

  <!-- ==================== LAYER 3: ASYNC TASK QUEUE (Y = 560) ==================== -->
  <g>
    <rect x="35" y="560" width="1130" height="120" rx="12" fill="#0f172a" stroke="#334155" stroke-width="1.5"/>
    <text class="text-title" x="55" y="585" font-size="11" fill="#64748b" letter-spacing="1">LAYER 3: ASYNC redis QUEUE (ARQ) &amp; WORKER PIPELINE</text>

    <!-- ARQ Task Broker Queue (Redis) -->
    <g transform="translate(150, 600)">
      <rect width="400" height="60" rx="8" fill="url(#grad-dark)" stroke="#d97706" stroke-width="1.5"/>
      <g transform="translate(12, 11) scale(1.1)"><use href="#icon-queue"/></g>
      <text class="text-title" x="55" y="24" font-size="12.5" fill="#ffffff">ARQ Task Broker (Redis Queue Storage)</text>
      <text class="text-body" x="55" y="40" font-size="9.5" fill="#94a3b8">Serializes background messages for heavy LLM processing</text>
    </g>

    <!-- ARQ Background Worker -->
    <g transform="translate(650, 600)">
      <rect width="400" height="60" rx="8" fill="url(#grad-dark)" stroke="#d97706" stroke-width="1.5"/>
      <g transform="translate(12, 11) scale(1.1)"><use href="#icon-server"/></g>
      <text class="text-title" x="55" y="24" font-size="12.5" fill="#ffffff">ARQ Worker (kontext-worker process)</text>
      <text class="text-body" x="55" y="40" font-size="9.5" fill="#94a3b8">Handles intent classification, negotiation, and self-learning loops</text>
    </g>
  </g>

  <!-- Queue -> Worker flow -->
  <path d="M 550 630 L 650 630" stroke="#fbbf24" stroke-width="1.8" marker-end="url(#arrow-amber)" fill="none"/>
  <g transform="translate(560, 622)">
    <rect class="label-rect" width="80" height="15" rx="3"/>
    <text class="label-text" x="40" y="10.5" text-anchor="middle">Task Dequeue</text>
  </g>

  <!-- Worker dispatching to logic layer (Y = 660 to Y = 715) -->
  <path d="M 850 660 L 850 685" stroke="#fbbf24" stroke-width="1.8" fill="none"/>
  <path d="M 175 685 L 1020 685" stroke="#fbbf24" stroke-width="1.8" fill="none"/>
  <path d="M 175 685 L 175 715" stroke="#fbbf24" stroke-width="1.8" marker-end="url(#arrow-amber)" fill="none"/>
  <path d="M 455 685 L 455 715" stroke="#fbbf24" stroke-width="1.8" marker-end="url(#arrow-amber)" fill="none"/>
  <path d="M 735 685 L 735 715" stroke="#fbbf24" stroke-width="1.8" marker-end="url(#arrow-amber)" fill="none"/>
  <path d="M 1020 685 L 1020 715" stroke="#fbbf24" stroke-width="1.8" marker-end="url(#arrow-amber)" fill="none"/>

  <!-- ==================== LAYER 4: BUSINESS LOGIC ENGINES (Y = 715) ==================== -->
  <g>
    <rect x="35" y="715" width="1130" height="140" rx="12" fill="#0f172a" stroke="#334155" stroke-width="1.5"/>
    <text class="text-title" x="55" y="740" font-size="11" fill="#64748b" letter-spacing="1">LAYER 4: AI &amp; BUSINESS LOGIC ORCHESTRATION ENGINES</text>

    <!-- Intent Classifier -->
    <g transform="translate(50, 755)">
      <rect width="250" height="80" rx="8" fill="url(#grad-dark)" stroke="#9333ea" stroke-width="1.5"/>
      <g transform="translate(15, 20) scale(1.2)"><use href="#icon-brain"/></g>
      <text class="text-title" x="60" y="30" font-size="13" fill="#ffffff">Intent Classifier</text>
      <text class="text-body" x="60" y="48" font-size="10" fill="#94a3b8">Bargaining/Buy/FAQ/Human</text>
      <text class="text-code" x="60" y="64" font-size="9" fill="#c084fc">Intent Routing Logic</text>
    </g>

    <!-- AI Router & Fallback -->
    <g transform="translate(330, 755)">
      <rect width="250" height="80" rx="8" fill="url(#grad-dark)" stroke="#9333ea" stroke-width="1.5"/>
      <g transform="translate(15, 20) scale(1.2)"><use href="#icon-brain"/></g>
      <text class="text-title" x="60" y="30" font-size="13" fill="#ffffff">AI Router &amp; Fallback</text>
      <text class="text-body" x="60" y="48" font-size="10" fill="#94a3b8">Multi-LLM Fallback Chain</text>
      <text class="text-code" x="60" y="64" font-size="9" fill="#c084fc">Local Ollama -> Cloud APIs</text>
    </g>

    <!-- Negotiation Engine -->
    <g transform="translate(610, 755)">
      <rect width="250" height="80" rx="8" fill="url(#grad-dark)" stroke="#9333ea" stroke-width="1.5"/>
      <g transform="translate(15, 20) scale(1.2)"><use href="#icon-brain"/></g>
      <text class="text-title" x="60" y="30" font-size="13" fill="#ffffff">Negotiation Engine</text>
      <text class="text-body" x="60" y="48" font-size="10" fill="#94a3b8">Soft Bargaining &amp; Margin Rules</text>
      <text class="text-code" x="60" y="64" font-size="9" fill="#c084fc">Dynamic discount thresholds</text>
    </g>

    <!-- Order & Inventory system -->
    <g transform="translate(890, 755)">
      <rect width="260" height="80" rx="8" fill="url(#grad-dark)" stroke="#9333ea" stroke-width="1.5"/>
      <g transform="translate(15, 20) scale(1.2)"><use href="#icon-brain"/></g>
      <text class="text-title" x="60" y="30" font-size="13" fill="#ffffff">Order &amp; Inventory System</text>
      <text class="text-body" x="60" y="48" font-size="10" fill="#94a3b8">Entity Extraction (Name, Phone, Stock)</text>
      <text class="text-code" x="60" y="64" font-size="9" fill="#c084fc">Extracts purchase details</text>
    </g>
  </g>

  <!-- Flow between Logic L4 and Databases L5 (Y=855 to Y=900) -->
  <path d="M 370 855 L 370 900" stroke="#059669" stroke-width="1.5" marker-end="url(#arrow-emerald)" fill="none"/>
  <path d="M 830 855 L 830 900" stroke="#059669" stroke-width="1.5" marker-end="url(#arrow-emerald)" fill="none"/>

  <!-- ==================== LAYER 5: STORAGE LAYER (Y = 900) ==================== -->
  <g>
    <rect x="35" y="900" width="1130" height="120" rx="12" fill="#0f172a" stroke="#334155" stroke-width="1.5"/>
    <text class="text-title" x="55" y="925" font-size="11" fill="#64748b" letter-spacing="1">LAYER 5: DATA LAYER &amp; STORAGE (POSTGRES + REDIS)</text>

    <!-- PostgreSQL DB + pgvector -->
    <g transform="translate(150, 940)">
      <rect width="400" height="60" rx="8" fill="url(#grad-dark)" stroke="#059669" stroke-width="1.5"/>
      <g transform="translate(12, 11) scale(1.1)"><use href="#icon-database"/></g>
      <text class="text-title" x="55" y="24" font-size="12.5" fill="#ffffff">PostgreSQL (pgvector &amp; HNSW Index)</text>
      <text class="text-body" x="55" y="42" font-size="9.5" fill="#34d399">Stores KB embeddings, chat logs, tickets, inventory, and order registers</text>
    </g>

    <!-- Redis Session Cache -->
    <g transform="translate(650, 940)">
      <rect width="400" height="60" rx="8" fill="url(#grad-dark)" stroke="#059669" stroke-width="1.5"/>
      <g transform="translate(12, 11) scale(1.1)"><use href="#icon-database"/></g>
      <text class="text-title" x="55" y="24" font-size="12.5" fill="#ffffff">Redis Transient Cache &amp; session memory</text>
      <text class="text-body" x="55" y="42" font-size="9.5" fill="#34d399">Active chat session memory, locks, and global config reload pub/sub</text>
    </g>
  </g>

  <!-- ==================== DIAGRAM CONNECTIONS / FLOW SUMMARY LABELS ==================== -->

  <!-- Feedback Learning Loop: Admin echoes saved to Postgres -->
  <path d="M 1000 660 C 1140 660 1140 970 560 970" stroke="#fbbf24" stroke-width="1.5" stroke-dasharray="5,5" marker-end="url(#arrow-amber)" fill="none"/>
  <text class="text-title" x="1080" y="870" font-size="9.5" fill="#fbbf24" text-anchor="middle">Self-Learning Loop</text>
  <text class="text-body" x="1080" y="885" font-size="8.5" fill="#64748b" text-anchor="middle">Echoes embedded to pgvector KB</text>

  <!-- Outbound Dispatch returning back to clients (Closed Loop) -->
  <path d="M 850 600 C 850 340 25 340 25 155 L 50 155" stroke="#34d399" stroke-width="1.5" stroke-dasharray="5,3" marker-end="url(#arrow-emerald)" fill="none"/>
  <text class="text-title" x="30" y="320" font-size="9.5" fill="#34d399" transform="rotate(-90 30 320)" text-anchor="middle">Dispatch HTTP Outbound Reply (Meta Graph API)</text>

</svg>
